# Blender v2.90.0 OBJ File: 'deadTree.blend'
# www.blender.org
mtllib deadTree.mtl
o Cube
v -1.109655 11.301208 -7.196979
v -0.250708 10.560127 -7.196979
v -1.109655 10.560127 -7.196979
v -0.250708 11.301208 -7.196979
v -1.228567 11.240453 -6.216122
v -0.131796 11.240453 -6.216122
v -0.131796 10.294184 -6.216122
v -1.228567 10.294184 -6.216122
v -2.270620 11.388093 -6.416020
v -2.188856 11.429869 -7.090464
v -2.188856 10.920297 -7.090464
v -2.270620 10.737432 -6.416020
v -4.131602 12.926152 -6.983809
v -0.311870 12.385525 -9.020008
v -0.311870 11.749983 -9.020008
v -1.048493 12.385525 -9.020008
v -1.048493 11.749983 -9.020008
v -0.680182 15.357521 -10.579180
v 0.403657 4.605504 -1.000000
v 1.000000 4.605504 -0.393495
v 0.403800 0.008351 -1.000000
v 1.000000 0.008351 -0.394030
v 1.000000 4.605504 0.398814
v 0.400748 4.605504 1.000000
v 1.000000 0.008351 0.399144
v 0.401004 0.008351 1.000000
v -1.000000 4.605504 -0.393495
v -0.403657 4.605504 -1.000000
v -1.000000 0.008351 -0.394030
v -0.403800 0.008351 -1.000000
v -0.404786 4.605504 1.000000
v -1.000000 4.605504 0.398813
v -0.404886 0.008351 1.000000
v -1.000000 0.008351 0.399143
v 0.319818 9.284154 -1.092581
v -0.280655 9.284154 -0.490923
v -1.680182 9.284154 -1.092582
v -1.085076 9.284154 -0.490923
v 0.319818 9.284154 -1.882092
v -0.276789 9.284154 -2.490923
v 0.250949 9.438181 -3.059005
v 0.319818 9.876761 -2.490923
v -1.083574 9.284154 -2.490923
v -1.680182 9.284154 -1.882092
v -1.680182 9.876761 -2.490923
v -1.611312 9.438181 -3.059005
v 0.319818 11.009711 -1.091624
v -0.281719 11.009711 -0.490923
v -1.085267 11.009711 -0.490923
v -1.680182 11.009711 -1.091624
v -0.958376 13.149714 -0.509040
v 0.223154 5.823282 0.809507
v 0.822960 5.823282 0.207571
v 0.226411 5.823282 -1.190493
v 0.822960 5.823282 -0.582598
v -0.580492 5.823282 -1.190493
v -1.177040 5.823282 -0.582598
v -0.581757 5.823282 0.809507
v -1.177040 5.823282 0.207571
v 0.098524 11.009711 -2.490923
v 0.319818 11.009711 -2.266944
v 0.319818 10.798205 -2.490923
v 0.294411 11.022693 -2.700496
v -1.680182 11.009711 -2.265696
v -1.468322 11.009711 -2.490923
v -1.654775 11.022693 -2.700496
v -1.680182 10.798205 -2.490923
v -1.220580 15.034225 -1.015184
v -1.363972 16.146658 -0.382665
v -0.404786 8.116280 5.239388
v -0.581757 9.334058 5.212204
v 0.223154 9.334058 5.212204
v 0.400748 8.116280 5.239388
v -0.404786 8.137575 6.193359
v -0.581757 9.355353 6.166174
v 0.223154 9.355353 6.166174
v 0.400748 8.137575 6.193359
v -0.090660 9.218870 9.210752
v -5.941474 13.035649 3.720494
v 1.329538 7.666986 -2.796566
v -4.705573 11.723768 2.190176
v 1.132637 11.641150 5.637925
v -4.398288 11.723768 2.500450
v -4.398190 10.832485 2.500450
v -4.705573 10.832485 2.189682
v 1.926145 7.666986 -2.187734
v 1.926145 8.259593 -2.796566
v 1.857275 7.821013 -3.364648
v 3.004552 6.600468 -4.304562
v 0.400748 5.313867 1.855373
v 3.533022 11.582855 -5.663179
v 0.223154 6.531644 1.697831
v 1.771815 10.427155 -6.944538
v -0.191252 10.427155 -6.706551
v -0.191252 11.270831 -6.706551
v 1.831271 10.294184 -6.454109
v 1.831271 11.240453 -6.454109
v 1.771815 11.270831 -6.944538
v 0.400748 5.898996 2.561938
v 0.223154 7.116774 2.431614
v 2.560523 6.741313 1.583638
v 2.683273 5.899611 1.692528
v 2.683273 6.304039 2.180891
v 2.560523 7.145741 2.090813
v 4.458748 8.128474 1.688391
v -0.000195 0.008351 0.000371
vt 0.625000 0.173896
vt 0.625000 0.075207
vt 0.625000 0.075088
vt 0.625000 0.221847
vt 0.625000 0.500000
vt 0.625000 0.500000
vt 0.625000 0.500000
vt 0.625000 0.174187
vt 0.625000 0.075148
vt 0.625000 0.075242
vt 0.625000 0.174013
vt 0.375000 0.824875
vt 0.625000 0.824906
vt 0.625000 0.925598
vt 0.375000 0.925611
vt 0.625000 0.425457
vt 0.625000 0.324543
vt 0.625000 0.324569
vt 0.625000 0.425431
vt 0.375000 0.575746
vt 0.625000 0.575813
vt 0.625000 0.674852
vt 0.375000 0.674893
vt 0.625000 0.500000
vt 0.625000 0.500000
vt 0.625000 0.500000
vt 0.625000 0.674912
vt 0.625000 0.527997
vt 0.625000 0.768987
vt 0.625000 0.221956
vt 0.625000 0.925589
vt 0.625000 0.824976
vt 0.625000 0.825059
vt 0.625000 0.925612
vt 0.625000 0.500000
vt 0.625000 0.500000
vt 0.625000 0.674758
vt 0.625000 0.575987
vt 0.625000 0.576104
vt 0.625000 0.674793
vt 0.625000 0.250000
vt 0.625000 0.250000
vt 0.625000 0.250000
vt 0.625000 0.250000
vt 0.625000 0.001649
vt 0.625000 0.102003
vt 0.625000 0.241508
vt 0.625000 0.250000
vt 0.625000 0.250000
vt 0.625000 0.250000
vt 0.625000 0.250000
vt 0.625000 0.472338
vt 0.625000 0.276482
vt 0.625000 0.466336
vt 0.625000 0.250000
vt 0.625000 0.250000
vt 0.625000 0.500000
vt 0.625000 0.500000
vt 0.625000 0.500000
vt 0.625000 0.500000
vt 0.625000 0.500000
vt 0.625000 0.925636
vt 0.625000 0.825192
vt 0.625000 0.925642
vt 0.625000 0.324576
vt 0.625000 0.425424
vt 0.625000 0.250000
vt 0.625000 0.250000
vt 0.625000 0.250000
vt 0.625000 0.250000
vt 0.625000 0.250000
vt 0.375000 0.075107
vt 0.375000 0.174254
vt 0.625000 0.500000
vt 0.625000 0.500000
vt 0.625000 0.500000
vt 0.625000 0.250000
vt 0.625000 0.500000
vt 0.625000 0.425424
vt 0.375000 0.425475
vt 0.375000 0.000000
vt 0.625000 0.000000
vt 0.375000 0.324525
vt 0.625000 0.000000
vt 0.625000 0.075207
vt 0.625000 0.075088
vt 0.625000 0.750217
vt 0.625000 1.006387
vt 0.625000 0.000000
vt 0.625000 0.499901
vt 0.625000 0.492338
vt 0.625000 0.250024
vt 0.625000 0.250000
vt 0.625000 0.824976
vt 0.625000 0.925589
vt 0.625000 0.824976
vt 0.625000 0.000000
vt 0.625000 0.000000
vt 0.625000 0.824906
vt 0.625000 0.824976
vt 0.625000 0.824906
vt 0.625000 0.925598
vt 0.625000 0.824906
vt 0.625000 0.925598
vt 0.625000 0.824976
vt 0.625000 0.925598
vt 0.625000 0.000000
vt 0.625000 0.000000
vt 0.625000 0.075088
vt 0.625000 0.000000
vt 0.625000 0.925589
vt 0.625000 0.824976
vt 0.625000 0.824906
vt 0.625000 0.925636
vt 0.625000 0.925612
vt 0.625000 0.000000
vt 0.625000 0.925589
vt 0.625000 0.001649
vt 0.625000 0.000000
vt 0.625000 0.576104
vt 0.625000 0.576104
vt 0.625000 0.925612
vt 0.625000 0.001649
vt 0.625000 0.075207
vt 0.625000 0.500000
vt 0.625000 0.500000
vt 0.625000 0.425424
vt 0.625000 0.824976
vt 0.625000 0.824906
vt 0.625000 0.500000
vt 0.625000 0.500000
vt 0.625000 0.824976
vt 0.625000 0.824906
vt 0.625000 0.824976
vt 0.625000 0.824976
vt 0.625000 0.824906
vt 0.625000 0.824906
vt 0.125000 0.575746
vt 0.199525 0.500000
vt 0.249976 0.625046
vt 0.300475 0.500000
vt 0.300126 0.750000
vt 0.199389 0.750000
vt 0.125000 0.674893
vt 0.000000 0.000000
vn -1.0000 0.0000 0.0000
vn 0.6579 -0.7029 -0.2703
vn -0.9896 -0.1439 0.0000
vn 0.0000 0.0000 1.0000
vn 0.0000 -0.1545 -0.9880
vn 1.0000 0.0000 0.0000
vn -0.1204 0.0000 -0.9927
vn 0.9503 0.3115 0.0000
vn -0.9981 0.0614 0.0000
vn 0.0000 0.3517 0.9361
vn 0.9927 0.0000 -0.1204
vn 0.9896 0.1439 0.0000
vn -0.9994 0.0000 -0.0335
vn -0.5393 -0.0470 0.8408
vn -0.9927 0.0000 -0.1204
vn 0.0000 0.3443 -0.9389
vn -0.0982 0.0000 -0.9952
vn -0.2359 0.9677 0.0885
vn 0.0000 0.0085 1.0000
vn -0.0000 -0.3517 -0.9361
vn -0.0548 0.0000 -0.9985
vn 0.0000 -0.9652 -0.2617
vn -0.3286 -0.9007 -0.2841
vn -0.1884 0.0000 0.9821
vn -0.1393 -0.9808 -0.1365
vn -0.6997 -0.6636 -0.2647
vn 0.6098 0.7830 0.1224
vn -0.2918 0.0000 0.9565
vn 0.0000 -0.3967 -0.9179
vn 0.0000 -0.8374 -0.5466
vn 0.0000 0.8595 0.5112
vn 0.9994 0.0000 -0.0335
vn -0.9732 0.0000 -0.2299
vn 0.0000 0.4646 0.8855
vn 0.9732 0.0000 -0.2299
vn -0.5868 -0.4564 -0.6689
vn -0.9953 -0.0691 -0.0673
vn 0.7129 0.0001 -0.7012
vn -0.7106 0.0000 0.7036
vn 0.7082 0.0000 0.7060
vn -0.7129 0.0001 -0.7012
vn -0.6703 -0.3444 -0.6573
vn 0.7134 -0.0054 -0.7008
vn 0.6644 0.3456 0.6626
vn -0.7108 0.0069 0.7034
vn -0.7352 0.0004 -0.6778
vn 0.7072 0.0000 0.7070
vn 0.5422 0.0966 0.8347
vn -0.7020 0.1588 0.6943
vn 0.6927 0.2091 0.6903
vn 0.7051 -0.1572 -0.6915
vn -0.6978 -0.2082 -0.6854
vn 0.0000 0.0000 -1.0000
vn -0.0322 0.9990 0.0318
vn 0.9966 0.0599 -0.0566
vn 0.6390 0.4407 -0.6305
vn -0.6980 0.2840 -0.6574
vn 0.1255 0.9891 0.0765
vn 0.0000 0.1815 -0.9834
vn -0.9851 -0.1335 0.1084
vn 0.9844 0.1364 -0.1108
vn 0.0000 0.7819 -0.6235
vn 0.0000 -0.9414 0.3373
vn 0.9895 0.1442 -0.0032
vn 0.0000 -0.9998 0.0223
vn -0.9896 -0.1437 0.0032
vn -0.7778 0.0003 -0.6285
vn -0.9786 -0.1388 0.1516
vn 0.0000 0.9990 0.0448
vn 0.9834 0.1458 0.1079
vn 0.6702 0.0001 0.7422
vn -0.8014 0.5980 -0.0133
vn 0.9298 -0.3680 0.0082
vn 0.0000 0.2252 0.9743
vn 0.1124 0.9874 -0.1113
vn -0.2332 -0.9447 0.2307
vn -0.3057 -0.9038 0.2996
vn 0.6202 0.0001 0.7844
vn 0.3959 0.8304 -0.3921
vn -0.5318 -0.6638 0.5260
vn 0.6495 0.5449 0.5304
vn 0.5348 0.6363 -0.5561
vn -0.5464 -0.6440 0.5355
vn 0.9011 0.3108 0.3025
vn -0.7082 -0.1316 -0.6936
vn 0.2904 0.7401 -0.6066
vn 0.9861 0.1289 -0.1047
vn 0.0000 -0.7702 0.6378
vn 0.1204 0.0000 0.9927
vn 0.5883 0.0000 -0.8086
vn -0.4215 0.0000 0.9068
vn -0.0313 -0.9656 -0.2580
vn -0.0364 -0.1334 -0.9904
vn -0.4731 0.6888 -0.5493
vn 0.1416 0.1257 0.9819
vn -0.1001 0.7779 -0.6203
vn 0.2363 -0.7484 0.6198
vn 0.0074 0.9981 0.0609
vn 0.1333 -0.1080 -0.9852
vn 0.1429 0.1259 0.9817
vn 0.6956 -0.5533 0.4582
vn 0.0000 -1.0000 -0.0000
vn 0.0338 0.9989 0.0318
vn -0.9966 0.0601 -0.0564
vn 0.0000 0.9981 0.0618
usemtl Material
s off
f 44/1/1 37/2/1 50/3/1 64/4/1
f 96/5/2 93/6/2 91/7/2
f 27/8/3 32/9/3 59/10/3 57/11/3
f 26/12/4 24/13/4 31/14/4 33/15/4
f 19/16/5 28/17/5 56/18/5 54/19/5
f 22/20/6 20/21/6 23/22/6 25/23/6
f 94/24/7 95/25/7 98/26/7 93/6/7
f 47/27/8 61/28/8 69/29/8
f 64/4/9 50/3/9 69/30/9
f 57/11/3 59/10/3 37/2/3 44/1/3
f 58/31/10 52/32/10 36/33/10 38/34/10
f 95/25/11 94/24/11 2/35/11 4/36/11
f 53/37/12 55/38/12 39/39/12 35/40/12
f 3/41/13 1/42/13 16/43/13 17/44/13
f 49/45/14 51/46/14 69/47/14 50/3/14
f 46/48/15 45/49/15 67/50/15 66/51/15
f 60/52/16 65/53/16 68/54/16
f 1/42/17 3/41/17 11/55/17 10/56/17
f 98/26/18 97/57/18 91/7/18
f 39/39/6 42/58/6 62/59/6 61/28/6
f 63/60/11 62/59/11 42/58/11 41/61/11
f 49/62/19 48/63/19 51/64/19
f 54/19/20 56/18/20 43/65/20 40/66/20
f 10/56/21 11/55/21 13/67/21
f 46/48/22 41/61/22 40/66/22 43/65/22
f 3/41/23 8/68/23 12/69/23 11/55/23
f 8/68/24 5/70/24 9/71/24 12/69/24
f 46/48/25 43/65/25 44/1/25
f 11/55/26 12/69/26 13/67/26
f 9/71/27 10/56/27 13/67/27
f 12/69/28 9/71/28 13/67/28
f 38/34/4 36/33/4 48/63/4 49/62/4
f 34/72/1 32/9/1 27/8/1 29/73/1
f 23/22/12 20/21/12 55/38/12 53/37/12
f 15/74/29 17/44/29 18/75/29
f 2/35/30 3/41/30 17/44/30 15/74/30
f 1/42/31 4/36/31 14/76/31 16/43/31
f 4/36/32 2/35/32 15/74/32 14/76/32
f 17/44/33 16/43/33 18/77/33
f 16/43/34 14/76/34 18/77/34
f 14/76/35 15/74/35 18/75/35
f 40/66/36 41/61/36 88/78/36 80/79/36
f 45/49/37 46/48/37 44/1/37
f 20/21/38 22/20/38 21/80/38 19/16/38
f 33/81/39 31/82/39 32/9/39 34/72/39
f 24/13/40 26/12/40 25/23/40 23/22/40
f 28/17/41 30/83/41 29/73/41 27/8/41
f 57/11/42 44/1/42 43/65/42 56/18/42
f 55/38/43 20/21/43 19/16/43 54/19/43
f 53/37/44 35/40/44 36/33/44 52/32/44
f 59/10/45 32/9/45 31/82/45 58/84/45
f 50/3/46 37/2/46 85/85/46 81/86/46
f 35/40/47 47/27/47 48/63/47 36/33/47
f 51/64/48 48/63/48 47/87/48 69/88/48
f 37/2/49 59/10/49 58/84/49 38/89/49
f 23/22/50 53/37/50 52/32/50 24/13/50
f 39/39/51 55/38/51 54/19/51 40/66/51
f 27/8/52 57/11/52 56/18/52 28/17/52
f 30/83/53 28/17/53 19/16/53 21/80/53
f 60/52/54 61/90/54 63/60/54
f 61/90/55 62/59/55 63/60/55
f 60/52/56 68/54/56 69/91/56 61/90/56
f 68/92/57 65/93/57 64/4/57 69/30/57
f 5/70/58 1/42/58 10/56/58 9/71/58
f 72/94/59 71/95/59 82/96/59
f 31/82/60 70/97/60 71/98/60 58/84/60
f 99/99/61 100/100/61 72/94/61 73/101/61
f 72/94/62 100/100/62 71/95/62
f 74/102/63 77/103/63 78/104/63
f 73/101/64 72/94/64 76/105/64 77/103/64
f 70/106/65 73/101/65 77/103/65 74/102/65
f 71/98/66 70/97/66 74/107/66 75/108/66
f 81/86/67 85/85/67 79/109/67
f 75/108/68 74/107/68 78/110/68
f 76/105/69 75/111/69 78/112/69
f 77/103/70 76/105/70 78/113/70
f 38/34/71 49/62/71 83/114/71 84/115/71
f 71/98/72 75/108/72 82/116/72
f 76/105/73 72/94/73 82/96/73
f 75/111/74 76/105/74 82/117/74
f 49/45/75 50/3/75 81/86/75 83/118/75
f 37/2/76 38/89/76 84/119/76 85/85/76
f 86/120/77 80/79/77 89/121/77
f 84/115/78 83/114/78 79/122/78
f 83/118/79 81/86/79 79/123/79
f 85/85/80 84/119/80 79/124/80
f 42/58/81 39/39/81 86/120/81 87/125/81
f 41/61/82 42/58/82 87/125/82 88/78/82
f 39/39/83 40/66/83 80/79/83 86/120/83
f 87/125/84 86/120/84 89/126/84
f 80/79/85 88/78/85 89/127/85
f 88/78/86 87/125/86 89/126/86
f 24/13/87 52/32/87 92/128/87 90/129/87
f 73/101/88 70/106/88 99/99/88
f 6/130/89 7/131/89 96/5/89 97/57/89
f 93/6/90 98/26/90 91/7/90
f 97/57/91 96/5/91 91/7/91
f 7/131/92 94/24/92 93/6/92 96/5/92
f 90/129/93 92/128/93 101/132/93 102/133/93
f 101/132/94 104/134/94 105/135/94
f 100/100/95 99/99/95 103/136/95 104/134/95
f 92/128/96 100/100/96 104/134/96 101/132/96
f 99/99/97 90/129/97 102/133/97 103/136/97
f 95/25/98 6/130/98 97/57/98 98/26/98
f 102/133/99 101/132/99 105/137/99
f 104/134/100 103/136/100 105/135/100
f 103/136/101 102/133/101 105/137/101
f 7/131/22 41/61/22 46/48/22 8/68/22
f 29/138/102 30/139/102 106/140/102
f 30/139/102 21/141/102 106/140/102
f 21/141/102 22/20/102 106/140/102
f 22/20/102 25/23/102 106/140/102
f 25/23/102 26/142/102 106/140/102
f 26/142/102 33/143/102 106/140/102
f 33/143/102 34/144/102 106/140/102
f 34/144/102 29/138/102 106/140/102
f 65/53/103 66/51/103 64/4/103
f 67/50/104 64/4/104 66/51/104
f 45/49/1 44/1/1 64/4/1 67/50/1
f 35/40/6 39/39/6 61/28/6 47/27/6
f 63/60/105 66/51/105 65/53/105 60/52/105
f 5/70/105 66/51/105 63/60/105 6/130/105
f 6/130/11 63/60/11 41/61/11 7/131/11
f 8/68/15 46/48/15 66/51/15 5/70/15
f 5/70/105 95/145/105 1/42/105
f 1/42/105 95/145/105 4/36/105
f 95/145/105 5/70/105 6/130/105
f 94/24/22 7/131/22 8/68/22
f 2/35/22 94/24/22 3/41/22
f 3/41/22 94/24/22 8/68/22
f 58/31/62 92/128/62 52/32/62
f 92/128/62 58/31/62 71/98/62 100/100/62
f 31/14/88 24/13/88 90/129/88
f 90/129/88 99/99/88 70/97/88 31/14/88
